<?xml version="1.0" encoding="UTF-8"?>
<svg version="1.1" xmlns="http://www.w3.org/2000/svg" width="741" height="741">
<path d="M0 0 C1.44964426 -0.01125335 1.44964426 -0.01125335 2.92857426 -0.02273405 C6.1697009 -0.0440806 9.41046536 -0.04395048 12.6516571 -0.04379272 C14.97436588 -0.05440525 17.29706936 -0.06623518 19.61976624 -0.07919312 C25.93180478 -0.10999542 32.24372996 -0.12111724 38.55583596 -0.12683535 C42.49894963 -0.13118739 46.44203384 -0.13956059 50.38513756 -0.14933395 C61.30814498 -0.17613804 72.23112847 -0.19878179 83.15417194 -0.20121193 C84.20212559 -0.20144529 84.20212559 -0.20144529 85.27125002 -0.20168336 C86.68747405 -0.20197441 88.10369808 -0.20225979 89.51992211 -0.20253952 C90.22291126 -0.20268237 90.92590041 -0.20282523 91.65019226 -0.20297241 C92.35404197 -0.20311208 93.05789168 -0.20325175 93.78307017 -0.20339565 C105.1877021 -0.20653086 116.59195423 -0.24312129 127.99646077 -0.29460867 C139.71264866 -0.34708049 151.42864906 -0.37332464 163.14495724 -0.37276304 C169.72038947 -0.37330147 176.29534981 -0.38492556 182.87067604 -0.42393875 C189.05558966 -0.45976532 195.23962265 -0.46210539 201.42458725 -0.43876648 C203.69334204 -0.43590323 205.9621484 -0.44498556 208.23079872 -0.46694565 C211.33133913 -0.49509488 214.42880331 -0.47995527 217.52929688 -0.45410156 C218.42473829 -0.47244509 219.32017971 -0.49078862 220.24275571 -0.50968802 C226.38277481 -0.39407013 229.45371307 1.36717715 233.85876626 5.61395228 C237.65627253 9.88141958 237.8208255 13.24825917 237.8301239 18.72036743 C237.85461609 19.46737915 237.87910828 20.21439087 237.90434265 20.98403931 C237.93647887 27.08456536 236.17221796 30.61105423 231.85746765 35.05239868 C226.60365447 39.24143906 222.78548115 39.5520521 216.27380371 39.52812195 C215.43206604 39.52897797 214.59032837 39.52983398 213.7230835 39.53071594 C210.8834982 39.53237586 208.04397142 39.52683981 205.20439148 39.52139282 C203.14149064 39.52108661 201.07858969 39.52121977 199.0156889 39.52175808 C193.47982346 39.5219843 187.94397955 39.51617876 182.4081192 39.50914764 C177.21785411 39.50346243 172.02759431 39.50318505 166.83732605 39.50247192 C151.64742247 39.49721978 136.45752292 39.48325869 121.2676239 39.47036743 C87.3394989 39.44974243 53.4113739 39.42911743 18.4551239 39.40786743 C18.4551239 114.97786743 18.4551239 190.54786743 18.4551239 268.40786743 C44.3394989 268.30474243 70.2238739 268.20161743 96.8926239 268.09536743 C105.0593988 268.07047241 113.22617371 268.04557739 121.64042664 268.01992798 C128.9743682 267.9833547 128.9743682 267.9833547 136.30828857 267.94285583 C139.56957434 267.92495166 142.83077084 267.91532013 146.09210205 267.91075134 C150.25861569 267.90464093 154.42483438 267.88423795 158.59123814 267.853706 C160.11625962 267.84492371 161.64131976 267.84106394 163.1663655 267.84282815 C174.14686123 267.85167924 184.82891329 267.03874605 193.4551239 259.40786743 C198.31038197 252.23724063 199.2256591 244.91542039 198.4551239 236.40786743 C197.01074169 231.33382007 194.82883954 226.51550749 190.4551239 223.40786743 C177.8325536 216.60331551 162.63566167 217.12228259 148.68130302 217.13347244 C145.97731154 217.1344545 143.27369961 217.121307 140.56976318 217.10449219 C132.89494025 217.05867926 125.22016737 217.03357826 117.54521179 217.02700806 C112.82042878 217.0219924 108.09605902 216.99776474 103.37141609 216.96168137 C101.5817316 216.95190868 99.79199019 216.94953756 98.00228691 216.95485306 C95.50686563 216.96192983 93.01268381 216.94463809 90.51737976 216.92202759 C89.42091881 216.93428627 89.42091881 216.93428627 88.30230713 216.9467926 C83.21972641 216.86500111 80.38571864 215.57173891 76.4551239 212.40786743 C72.23594921 207.99691207 69.50674847 204.29906894 69.4238739 198.05239868 C69.76159608 192.47153969 70.66096646 187.66816421 74.4551239 183.40786743 C81.14431356 178.02013099 87.14975303 177.26009755 95.59086609 177.26602173 C96.79922623 177.26081009 96.79922623 177.26081009 98.03199768 177.25549316 C99.77637294 177.24815915 101.52075739 177.24280126 103.26514435 177.2392025 C106.03209904 177.23200792 108.79887937 177.2163186 111.56578064 177.19786072 C119.43121437 177.14553504 127.29655112 177.09744288 135.16215515 177.0819397 C139.97918667 177.07182458 144.79577629 177.04241252 149.61263275 177.00061989 C151.44169514 176.98835693 153.27082005 176.98317998 155.09992218 176.98541832 C170.43432492 177.21741201 170.43432492 177.21741201 183.3301239 169.72036743 C187.79004295 162.76814068 189.57465377 155.64710413 188.4551239 147.40786743 C187.13170643 142.21139768 185.66907874 138.46348034 181.5801239 134.90786743 C175.5984995 132.03668772 170.52011977 131.11754377 163.91459656 131.15249634 C163.0780101 131.14887589 162.24142365 131.14525543 161.37948608 131.14152527 C159.5707419 131.13465516 157.76197709 131.13212134 155.95322037 131.13347244 C153.08557988 131.13444129 150.21831052 131.12145303 147.35072327 131.10449219 C139.20033119 131.05832858 131.04997825 131.03361916 122.89945984 131.02700806 C117.906248 131.02198227 112.91342519 130.99768011 107.92034531 130.96168137 C106.02346003 130.95191003 104.12652107 130.94953681 102.22961807 130.95485306 C99.57080493 130.96195562 96.91314464 130.94457694 94.25444031 130.92202759 C93.47911453 130.93020004 92.70378876 130.9383725 91.90496826 130.9467926 C85.46010217 130.85005708 80.25769884 128.88072767 75.39653015 124.59146118 C74.94149109 124.01525024 74.48645203 123.43903931 74.0176239 122.84536743 C73.54453796 122.26657837 73.07145203 121.68778931 72.58403015 121.09146118 C69.30938224 116.20781672 70.05967344 110.02624849 70.4551239 104.40786743 C72.16452536 98.97800396 75.8175913 95.55003237 80.4551239 92.40786743 C84.83580543 90.18843205 88.96227918 90.11777692 93.77104187 90.13320923 C94.59623825 90.1280983 95.42143463 90.12298737 96.27163696 90.11772156 C98.99693593 90.10383754 101.72198127 90.10478306 104.4473114 90.10708618 C106.35479322 90.10319534 108.26227418 90.09885987 110.16975403 90.09410095 C114.17278342 90.08663889 118.17572465 90.08692755 122.17875671 90.0921936 C127.26999393 90.09795326 132.36086318 90.08114253 137.45203972 90.05784893 C141.3969885 90.04299224 145.34185146 90.04225657 149.28682327 90.04535866 C151.16120755 90.04485026 153.03559725 90.03970452 154.90995407 90.02954674 C175.56164948 89.93145871 195.93505405 92.22860993 211.4551239 107.40786743 C225.21984195 122.12111573 229.34444751 137.47165279 228.80278015 157.30239868 C228.1034043 170.85123904 222.62850843 183.42506662 213.4551239 193.40786743 C214.29430359 193.76364868 214.29430359 193.76364868 215.1504364 194.12661743 C226.20007556 200.26946768 232.85727527 212.29330354 236.62602234 223.90737915 C238.00583602 229.73298826 238.01147625 235.48664882 237.92167664 241.43569946 C237.89255423 243.53789691 237.90114913 245.63758253 237.91410828 247.73989868 C237.88717899 264.99966268 232.05487259 276.78229063 220.4551239 289.40786743 C215.93803407 293.80712014 210.4373333 296.63345065 204.8926239 299.53286743 C203.98371399 300.02049561 203.98371399 300.02049561 203.05644226 300.51797485 C189.87684995 307.11699924 176.73866589 307.99649518 162.31425476 307.92544556 C160.44002238 307.9308788 158.56579427 307.93800815 156.6915741 307.94668579 C151.64872331 307.96476783 146.60620341 307.95791778 141.56334758 307.94516945 C136.26909095 307.9349763 130.97486088 307.94445129 125.68060303 307.95071411 C116.80339003 307.9579665 107.9263107 307.94846029 99.04911804 307.92935181 C88.79176784 307.90752728 78.53473502 307.91468455 68.27739233 307.93665743 C59.44986536 307.95480822 50.62243387 307.95737313 41.79489428 307.94690275 C36.53102539 307.94067383 31.26730582 307.93981694 26.00344658 307.95304871 C21.06282783 307.96460399 16.12261941 307.95658735 11.18204498 307.93347168 C9.37043247 307.92818548 7.55878539 307.92969684 5.74718666 307.93852234 C3.27326321 307.94946364 0.80065267 307.9357331 -1.67318726 307.915802 C-2.74638068 307.92918633 -2.74638068 307.92918633 -3.84125477 307.94284105 C-10.40623064 307.84033103 -13.64832037 305.10022189 -18.37977314 300.87820244 C-21.81710585 296.45738227 -21.23801037 291.2412903 -21.18652344 285.88250732 C-21.19502896 284.71512933 -21.20353448 283.54775133 -21.21229774 282.34499824 C-21.23070784 279.11283822 -21.22674037 275.88160643 -21.21315849 272.64945102 C-21.20389774 269.16055758 -21.22339849 265.6718067 -21.23913574 262.18295288 C-21.2652205 255.35099897 -21.2641355 248.51930823 -21.25309756 241.68732347 C-21.24453727 236.13354331 -21.24537138 230.57983927 -21.25289345 225.0260582 C-21.25394834 224.23542761 -21.25500322 223.44479701 -21.25609008 222.63020792 C-21.25826103 221.02400095 -21.2604478 219.417794 -21.26265023 217.81158708 C-21.28208005 202.7500301 -21.27008279 187.68862069 -21.24786428 172.62707578 C-21.22961889 159.70933734 -21.24050935 146.7918848 -21.27217102 133.87417603 C-21.30894613 118.86939907 -21.32595058 103.86480067 -21.31275874 88.85997856 C-21.31141766 87.25908846 -21.31010868 85.65819834 -21.30883217 84.0573082 C-21.3082015 83.26966828 -21.30757084 82.48202837 -21.30692106 81.67052058 C-21.30389559 76.1257427 -21.31514638 70.58109964 -21.33208275 65.03635025 C-21.35242264 58.27550508 -21.35151593 51.51506317 -21.32345035 44.75423898 C-21.30969068 41.30595915 -21.30546387 37.85838293 -21.32740021 34.41012955 C-21.34603295 30.66847366 -21.32771301 26.92875366 -21.30004883 23.18719482 C-21.31411528 22.10177906 -21.32818173 21.0163633 -21.34267443 19.89805615 C-21.23572828 12.72210606 -19.72404696 8.45990585 -14.5448761 3.40786743 C-10.14907978 -0.40154439 -5.54941448 -0.02438235 0 0 Z " fill="#FDFDFD" transform="translate(262.5448760986328,216.59213256835938)"/>
<path d="M0 0 C1.44964426 -0.01125335 1.44964426 -0.01125335 2.92857426 -0.02273405 C6.1697009 -0.0440806 9.41046536 -0.04395048 12.6516571 -0.04379272 C14.97436588 -0.05440525 17.29706936 -0.06623518 19.61976624 -0.07919312 C25.93180478 -0.10999542 32.24372996 -0.12111724 38.55583596 -0.12683535 C42.49894963 -0.13118739 46.44203384 -0.13956059 50.38513756 -0.14933395 C61.30814498 -0.17613804 72.23112847 -0.19878179 83.15417194 -0.20121193 C84.20212559 -0.20144529 84.20212559 -0.20144529 85.27125002 -0.20168336 C86.68747405 -0.20197441 88.10369808 -0.20225979 89.51992211 -0.20253952 C90.22291126 -0.20268237 90.92590041 -0.20282523 91.65019226 -0.20297241 C92.35404197 -0.20311208 93.05789168 -0.20325175 93.78307017 -0.20339565 C105.1877021 -0.20653086 116.59195423 -0.24312129 127.99646077 -0.29460867 C139.71264866 -0.34708049 151.42864906 -0.37332464 163.14495724 -0.37276304 C169.72038947 -0.37330147 176.29534981 -0.38492556 182.87067604 -0.42393875 C189.05558966 -0.45976532 195.23962265 -0.46210539 201.42458725 -0.43876648 C203.69334204 -0.43590323 205.9621484 -0.44498556 208.23079872 -0.46694565 C211.33133913 -0.49509488 214.42880331 -0.47995527 217.52929688 -0.45410156 C218.42473829 -0.47244509 219.32017971 -0.49078862 220.24275571 -0.50968802 C226.38277481 -0.39407013 229.45371307 1.36717715 233.85876626 5.61395228 C237.65627253 9.88141958 237.8208255 13.24825917 237.8301239 18.72036743 C237.85461609 19.46737915 237.87910828 20.21439087 237.90434265 20.98403931 C237.93647887 27.08456536 236.17221796 30.61105423 231.85746765 35.05239868 C226.60365447 39.24143906 222.78548115 39.5520521 216.27380371 39.52812195 C215.43206604 39.52897797 214.59032837 39.52983398 213.7230835 39.53071594 C210.8834982 39.53237586 208.04397142 39.52683981 205.20439148 39.52139282 C203.14149064 39.52108661 201.07858969 39.52121977 199.0156889 39.52175808 C193.47982346 39.5219843 187.94397955 39.51617876 182.4081192 39.50914764 C177.21785411 39.50346243 172.02759431 39.50318505 166.83732605 39.50247192 C151.64742247 39.49721978 136.45752292 39.48325869 121.2676239 39.47036743 C87.3394989 39.44974243 53.4113739 39.42911743 18.4551239 39.40786743 C18.4551239 114.97786743 18.4551239 190.54786743 18.4551239 268.40786743 C44.3394989 268.30474243 70.2238739 268.20161743 96.8926239 268.09536743 C105.0593988 268.07047241 113.22617371 268.04557739 121.64042664 268.01992798 C128.9743682 267.9833547 128.9743682 267.9833547 136.30828857 267.94285583 C139.56957434 267.92495166 142.83077084 267.91532013 146.09210205 267.91075134 C150.25861569 267.90464093 154.42483438 267.88423795 158.59123814 267.853706 C160.11625962 267.84492371 161.64131976 267.84106394 163.1663655 267.84282815 C174.14686123 267.85167924 184.82891329 267.03874605 193.4551239 259.40786743 C198.31038197 252.23724063 199.2256591 244.91542039 198.4551239 236.40786743 C197.01074169 231.33382007 194.82883954 226.51550749 190.4551239 223.40786743 C177.8325536 216.60331551 162.63566167 217.12228259 148.68130302 217.13347244 C145.97731154 217.1344545 143.27369961 217.121307 140.56976318 217.10449219 C132.89494025 217.05867926 125.22016737 217.03357826 117.54521179 217.02700806 C112.82042878 217.0219924 108.09605902 216.99776474 103.37141609 216.96168137 C101.5817316 216.95190868 99.79199019 216.94953756 98.00228691 216.95485306 C95.50686563 216.96192983 93.01268381 216.94463809 90.51737976 216.92202759 C89.42091881 216.93428627 89.42091881 216.93428627 88.30230713 216.9467926 C83.21972641 216.86500111 80.38571864 215.57173891 76.4551239 212.40786743 C72.23594921 207.99691207 69.50674847 204.29906894 69.4238739 198.05239868 C69.76159608 192.47153969 70.66096646 187.66816421 74.4551239 183.40786743 C81.14431356 178.02013099 87.14975303 177.26009755 95.59086609 177.26602173 C96.79922623 177.26081009 96.79922623 177.26081009 98.03199768 177.25549316 C99.77637294 177.24815915 101.52075739 177.24280126 103.26514435 177.2392025 C106.03209904 177.23200792 108.79887937 177.2163186 111.56578064 177.19786072 C119.43121437 177.14553504 127.29655112 177.09744288 135.16215515 177.0819397 C139.97918667 177.07182458 144.79577629 177.04241252 149.61263275 177.00061989 C151.44169514 176.98835693 153.27082005 176.98317998 155.09992218 176.98541832 C170.43432492 177.21741201 170.43432492 177.21741201 183.3301239 169.72036743 C187.79004295 162.76814068 189.57465377 155.64710413 188.4551239 147.40786743 C187.13170643 142.21139768 185.66907874 138.46348034 181.5801239 134.90786743 C175.5984995 132.03668772 170.52011977 131.11754377 163.91459656 131.15249634 C163.0780101 131.14887589 162.24142365 131.14525543 161.37948608 131.14152527 C159.5707419 131.13465516 157.76197709 131.13212134 155.95322037 131.13347244 C153.08557988 131.13444129 150.21831052 131.12145303 147.35072327 131.10449219 C139.20033119 131.05832858 131.04997825 131.03361916 122.89945984 131.02700806 C117.906248 131.02198227 112.91342519 130.99768011 107.92034531 130.96168137 C106.02346003 130.95191003 104.12652107 130.94953681 102.22961807 130.95485306 C99.57080493 130.96195562 96.91314464 130.94457694 94.25444031 130.92202759 C93.47911453 130.93020004 92.70378876 130.9383725 91.90496826 130.9467926 C85.46010217 130.85005708 80.25769884 128.88072767 75.39653015 124.59146118 C74.94149109 124.01525024 74.48645203 123.43903931 74.0176239 122.84536743 C73.54453796 122.26657837 73.07145203 121.68778931 72.58403015 121.09146118 C69.30938224 116.20781672 70.05967344 110.02624849 70.4551239 104.40786743 C72.16452536 98.97800396 75.8175913 95.55003237 80.4551239 92.40786743 C84.83580543 90.18843205 88.96227918 90.11777692 93.77104187 90.13320923 C94.59623825 90.1280983 95.42143463 90.12298737 96.27163696 90.11772156 C98.99693593 90.10383754 101.72198127 90.10478306 104.4473114 90.10708618 C106.35479322 90.10319534 108.26227418 90.09885987 110.16975403 90.09410095 C114.17278342 90.08663889 118.17572465 90.08692755 122.17875671 90.0921936 C127.26999393 90.09795326 132.36086318 90.08114253 137.45203972 90.05784893 C141.3969885 90.04299224 145.34185146 90.04225657 149.28682327 90.04535866 C151.16120755 90.04485026 153.03559725 90.03970452 154.90995407 90.02954674 C175.56164948 89.93145871 195.93505405 92.22860993 211.4551239 107.40786743 C225.21984195 122.12111573 229.34444751 137.47165279 228.80278015 157.30239868 C228.1034043 170.85123904 222.62850843 183.42506662 213.4551239 193.40786743 C214.29430359 193.76364868 214.29430359 193.76364868 215.1504364 194.12661743 C226.20007556 200.26946768 232.85727527 212.29330354 236.62602234 223.90737915 C238.00583602 229.73298826 238.01147625 235.48664882 237.92167664 241.43569946 C237.89255423 243.53789691 237.90114913 245.63758253 237.91410828 247.73989868 C237.88717899 264.99966268 232.05487259 276.78229063 220.4551239 289.40786743 C215.93803407 293.80712014 210.4373333 296.63345065 204.8926239 299.53286743 C203.98371399 300.02049561 203.98371399 300.02049561 203.05644226 300.51797485 C189.87684995 307.11699924 176.73866589 307.99649518 162.31425476 307.92544556 C160.44002238 307.9308788 158.56579427 307.93800815 156.6915741 307.94668579 C151.64872331 307.96476783 146.60620341 307.95791778 141.56334758 307.94516945 C136.26909095 307.9349763 130.97486088 307.94445129 125.68060303 307.95071411 C116.80339003 307.9579665 107.9263107 307.94846029 99.04911804 307.92935181 C88.79176784 307.90752728 78.53473502 307.91468455 68.27739233 307.93665743 C59.44986536 307.95480822 50.62243387 307.95737313 41.79489428 307.94690275 C36.53102539 307.94067383 31.26730582 307.93981694 26.00344658 307.95304871 C21.06282783 307.96460399 16.12261941 307.95658735 11.18204498 307.93347168 C9.37043247 307.92818548 7.55878539 307.92969684 5.74718666 307.93852234 C3.27326321 307.94946364 0.80065267 307.9357331 -1.67318726 307.915802 C-2.74638068 307.92918633 -2.74638068 307.92918633 -3.84125477 307.94284105 C-10.40623064 307.84033103 -13.64832037 305.10022189 -18.37977314 300.87820244 C-21.81710585 296.45738227 -21.23801037 291.2412903 -21.18652344 285.88250732 C-21.19502896 284.71512933 -21.20353448 283.54775133 -21.21229774 282.34499824 C-21.23070784 279.11283822 -21.22674037 275.88160643 -21.21315849 272.64945102 C-21.20389774 269.16055758 -21.22339849 265.6718067 -21.23913574 262.18295288 C-21.2652205 255.35099897 -21.2641355 248.51930823 -21.25309756 241.68732347 C-21.24453727 236.13354331 -21.24537138 230.57983927 -21.25289345 225.0260582 C-21.25394834 224.23542761 -21.25500322 223.44479701 -21.25609008 222.63020792 C-21.25826103 221.02400095 -21.2604478 219.417794 -21.26265023 217.81158708 C-21.28208005 202.7500301 -21.27008279 187.68862069 -21.24786428 172.62707578 C-21.22961889 159.70933734 -21.24050935 146.7918848 -21.27217102 133.87417603 C-21.30894613 118.86939907 -21.32595058 103.86480067 -21.31275874 88.85997856 C-21.31141766 87.25908846 -21.31010868 85.65819834 -21.30883217 84.0573082 C-21.3082015 83.26966828 -21.30757084 82.48202837 -21.30692106 81.67052058 C-21.30389559 76.1257427 -21.31514638 70.58109964 -21.33208275 65.03635025 C-21.35242264 58.27550508 -21.35151593 51.51506317 -21.32345035 44.75423898 C-21.30969068 41.30595915 -21.30546387 37.85838293 -21.32740021 34.41012955 C-21.34603295 30.66847366 -21.32771301 26.92875366 -21.30004883 23.18719482 C-21.31411528 22.10177906 -21.32818173 21.0163633 -21.34267443 19.89805615 C-21.23572828 12.72210606 -19.72404696 8.45990585 -14.5448761 3.40786743 C-10.14907978 -0.40154439 -5.54941448 -0.02438235 0 0 Z M-18.16169167 11.38004494 C-20.27602345 16.00836577 -19.9576339 20.44735345 -19.92582703 25.47802734 C-19.930507 26.60850451 -19.93518697 27.73898168 -19.94000876 28.90371573 C-19.95199536 32.69997732 -19.94248683 36.49588037 -19.93305969 40.29214478 C-19.93547316 43.01056159 -19.9423561 45.72896308 -19.94898987 48.44737244 C-19.96233479 55.06986457 -19.95944586 61.69225475 -19.95075195 68.31475089 C-19.94397764 73.69787574 -19.94305758 79.080972 -19.94632339 84.46409988 C-19.94678309 85.23017644 -19.94724279 85.99625299 -19.94771642 86.78554399 C-19.9486756 88.34182521 -19.94964824 89.89810642 -19.9506342 91.45438762 C-19.95919061 106.05090791 -19.94935062 120.6473717 -19.9332331 135.24388273 C-19.91983504 147.76504398 -19.92215328 160.28612176 -19.93598938 172.80728149 C-19.95205001 187.34835866 -19.95836096 201.88938626 -19.94915259 216.43047106 C-19.94819695 217.98164852 -19.94725384 219.53282598 -19.94632339 221.08400345 C-19.94586057 221.84720207 -19.94539774 222.61040069 -19.94492089 223.39672654 C-19.94233205 228.77160071 -19.94669983 234.14644342 -19.95376205 239.52131271 C-19.96218286 246.07423383 -19.95988499 252.62704715 -19.94391982 259.17995594 C-19.93604393 262.52264987 -19.93455266 265.86501567 -19.94286728 269.20773125 C-19.95105433 272.8332472 -19.94079457 276.45825662 -19.92582703 280.08374023 C-19.93251919 281.13773242 -19.93921136 282.19172461 -19.94610631 283.27765596 C-19.89156387 290.0804669 -19.27349195 295.28144517 -14.64253235 300.58755493 C-13.63513 301.42673462 -13.63513 301.42673462 -12.6073761 302.28286743 C-11.93835266 302.85778931 -11.26932922 303.43271118 -10.58003235 304.02505493 C-6.50003081 306.79726327 -2.39364558 306.53864359 2.43850708 306.55503845 C3.4933408 306.56055348 3.4933408 306.56055348 4.56948429 306.56617993 C6.9264725 306.57719418 9.28341657 306.58105698 11.64042664 306.58486938 C13.33106119 306.59113644 15.02169437 306.59778346 16.71232605 306.6047821 C22.27111351 306.62582086 27.8299012 306.63619399 33.38871765 306.64614868 C35.30873694 306.65019828 37.2287561 306.65431526 39.1487751 306.65849876 C48.1835327 306.67756112 57.21828215 306.69178204 66.25305599 306.70011073 C76.63874578 306.70984492 87.02422025 306.73605944 97.40983433 306.77661163 C105.46028446 306.80695122 113.51067358 306.82159694 121.5611797 306.82489175 C126.35680611 306.82722475 131.15220286 306.83595181 135.94776726 306.86135292 C180.18311148 307.51642692 180.18311148 307.51642692 218.4551239 287.40786743 C224.504453 281.10293288 229.04105584 274.44258183 232.4551239 266.40786743 C232.78641296 265.65247681 233.11770203 264.89708618 233.45903015 264.11880493 C239.37146416 248.02771001 237.43714798 230.69711331 230.3926239 215.34536743 C225.60483397 206.18567609 219.24051412 198.9417707 210.4551239 193.40786743 C210.80703796 192.99278931 211.15895203 192.57771118 211.52153015 192.15005493 C224.69518641 175.70878159 226.80431127 158.84581322 225.4551239 138.40786743 C223.76671246 125.25768495 215.47474718 113.69996946 205.4551239 105.40786743 C193.1088769 96.4811349 178.14278486 92.31386126 163.02226257 92.1991272 C162.19703598 92.18934341 161.37180939 92.17955963 160.52157593 92.16947937 C157.80543089 92.13969818 155.0893343 92.1181911 152.37309265 92.09927368 C151.44102808 92.09270185 150.50896351 92.08613003 149.54865456 92.07935905 C144.61702109 92.04684502 139.68540855 92.02237199 134.75370789 92.00283813 C130.68470264 91.9850191 126.61638958 91.95017764 122.5476532 91.90029907 C117.61935219 91.83997061 112.69169318 91.80934642 107.76304054 91.79966545 C105.89200161 91.79113444 104.02097876 91.7723747 102.15015221 91.74292183 C89.25607922 91.25162739 89.25607922 91.25162739 77.98925781 96.78761292 C74.4305135 100.54613197 72.28374304 104.10595535 72.0176239 109.40786743 C72.36312752 115.18112142 74.47927155 119.62899184 78.4551239 123.78286743 C82.97787734 127.74027669 86.66434306 127.55367904 92.39213562 127.54971313 C93.20074539 127.55318756 94.00935516 127.55666199 94.84246826 127.5602417 C96.60051155 127.56759648 98.3585641 127.57294335 100.11661911 127.57653236 C102.90971576 127.5837127 105.70263824 127.59939498 108.49568176 127.61787415 C116.43819154 127.67024146 124.38060961 127.71822351 132.32328796 127.73379517 C137.1834155 127.74394732 142.04310945 127.77346116 146.90306473 127.81511497 C148.74556809 127.82733595 150.58813298 127.83256272 152.43067551 127.83031654 C177.11316891 127.80765018 177.11316891 127.80765018 184.8271637 134.45054626 C190.76230369 140.83402625 190.87929567 146.97007014 190.74028015 155.30630493 C190.41305178 162.47244176 187.7240058 169.43170119 182.4551239 174.40786743 C175.47922814 178.72557976 169.25890428 179.55659419 161.11991882 179.51797485 C159.4072062 179.51851733 157.6944936 179.51910431 155.98178101 179.51972961 C154.62665185 179.51758737 154.62665185 179.51758737 153.24414635 179.51540184 C148.441369 179.51186945 143.63870695 179.53769478 138.83598328 179.55825806 C132.73293746 179.58257916 126.63023291 179.59829389 120.52714539 179.58291626 C115.58680599 179.57123463 110.64730964 179.58870257 105.70710182 179.62536049 C103.82974878 179.63395607 101.95231464 179.63192594 100.07498741 179.61885643 C87.41391408 179.07817052 87.41391408 179.07817052 76.71777344 184.90879822 C76.30109909 185.40349106 75.88442474 185.8981839 75.4551239 186.40786743 C74.7951239 187.12974243 74.1351239 187.85161743 73.4551239 188.59536743 C71.57883077 193.87244188 71.32059921 199.48913297 73.3691864 204.75942993 C75.99876765 209.28909569 78.83672387 211.81952364 83.4551239 214.40786743 C86.42923939 214.7817133 89.02644741 214.94323939 91.99223328 214.90615845 C92.82893555 214.91167725 93.66563782 214.91719604 94.5276947 214.92288208 C96.33804992 214.93217951 98.14847054 214.93232594 99.95883179 214.9242878 C102.83670875 214.91160697 105.71363341 214.92299791 108.59147644 214.94032288 C113.67588427 214.9670165 118.76005789 214.97261974 123.8445282 214.97122192 C131.95263962 214.9689946 140.06045799 214.98348565 148.16845703 215.02680779 C150.98109259 215.03653917 153.79325584 215.02798025 156.60588074 215.01811218 C185.350025 215.0528548 185.350025 215.0528548 194.97465515 223.78677368 C201.20213176 230.66032855 200.97559553 238.6294262 200.76371765 247.32583618 C200.3896942 254.18396742 198.05253647 258.16915825 193.0176239 262.72036743 C186.26015714 268.02260148 181.25648963 269.51979233 172.66574097 269.56608582 C171.99745773 269.57101547 171.3291745 269.57594513 170.64064026 269.58102417 C168.40196482 269.59635842 166.1633176 269.60474975 163.92460632 269.6131897 C162.29198871 269.62290873 160.65937359 269.6330544 159.02676105 269.64359188 C154.65750232 269.67061585 150.28823356 269.69180594 145.91893768 269.71178436 C141.81790049 269.73142101 137.71690184 269.75632324 133.6158905 269.78079224 C121.62483067 269.84927207 109.6337238 269.90930423 97.6426239 269.97036743 C70.8507489 270.11474243 44.0588739 270.25911743 16.4551239 270.40786743 C16.4551239 193.51786743 16.4551239 116.62786743 16.4551239 37.40786743 C117.8926239 37.65786743 117.8926239 37.65786743 149.91777039 37.76821899 C159.39391066 37.78159701 159.39391066 37.78159701 168.87005615 37.78964233 C173.08974628 37.79336785 177.30923496 37.80835332 181.52886963 37.83016968 C186.91486858 37.85764664 192.30057545 37.86582459 197.686638 37.86015654 C199.66106206 37.86134141 201.63549655 37.86924947 203.6098603 37.88472795 C206.28300777 37.9047076 208.95502948 37.89979864 211.62820435 37.8888855 C212.39551911 37.90053616 213.16283388 37.91218681 213.95340061 37.92419052 C220.55072258 37.85209817 226.52064163 35.87984978 231.6113739 31.59146118 C232.0548114 31.01525024 232.4982489 30.43903931 232.9551239 29.84536743 C233.4191864 29.26657837 233.8832489 28.68778931 234.3613739 28.09146118 C237.09131191 23.8893066 237.12704418 19.22850475 236.4551239 14.40786743 C233.99351544 7.95477235 229.6067882 4.31092726 223.4551239 1.40786743 C220.24677143 0.74083693 217.15302182 0.7387789 213.88442993 0.78640747 C212.95148356 0.78001865 212.01853718 0.77362983 211.0573197 0.76704741 C207.94720892 0.75184946 204.83838265 0.77222461 201.72831726 0.79263306 C199.49221374 0.78913034 197.25611271 0.78347006 195.02001953 0.77581787 C188.9580672 0.76158298 182.89656917 0.77861873 176.83466029 0.80210304 C170.48781814 0.82222431 164.14099462 0.81633186 157.79412842 0.81399536 C147.13733988 0.81404892 136.48074603 0.83367086 125.82402039 0.86587524 C114.86792042 0.89897185 103.91200528 0.91313173 92.95585632 0.90689087 C79.73895351 0.89939921 66.52214843 0.90678548 53.30525398 0.92854309 C48.26195198 0.9367152 43.21869068 0.93942698 38.17538261 0.93785095 C32.23684871 0.93697176 26.29853543 0.95119799 20.36005974 0.97707748 C18.18121409 0.98423687 16.00234496 0.98632401 13.82349014 0.98295975 C10.84836582 0.97924236 7.87388442 0.99400195 4.89883423 1.01345825 C4.03754487 1.00813033 3.1762555 1.0028024 2.28886646 0.99731302 C-6.9280654 1.10123803 -12.26507024 4.18739763 -18.16169167 11.38004494 Z " fill="#676766" transform="translate(262.5448760986328,216.59213256835938)"/>
<path d="M0 0 C29.80132977 -0.15974593 59.6026451 -0.28359734 89.40431088 -0.35745731 C92.92400093 -0.36621208 96.44369013 -0.37527235 99.96337891 -0.38452148 C101.01442289 -0.38727574 101.01442289 -0.38727574 102.08670008 -0.39008565 C113.42694834 -0.42053102 124.76694778 -0.47571516 136.10704851 -0.54006957 C147.74620466 -0.6055694 159.3852158 -0.64389581 171.02454758 -0.65861946 C177.56098586 -0.66774751 184.09686012 -0.68920891 190.63311768 -0.7401104 C196.78588824 -0.78763707 202.93786264 -0.80227772 209.09079933 -0.79175377 C211.34828837 -0.79367892 213.60580413 -0.80759519 215.86313438 -0.83443832 C218.94854964 -0.86932773 222.0309689 -0.86087606 225.11645508 -0.84178162 C226.0075252 -0.86217151 226.89859531 -0.8825614 227.81666756 -0.90356916 C233.94666796 -0.80119265 237.0050879 0.96759389 241.40215588 5.20537513 C245.20137589 9.47248392 245.36570052 12.83975802 245.375 18.3125 C245.39949219 19.05951172 245.42398438 19.80652344 245.44921875 20.57617188 C245.48135497 26.67669793 243.71709406 30.2031868 239.40234375 34.64453125 C234.14853057 38.83357163 230.33035725 39.14418467 223.81867981 39.12025452 C222.97694214 39.12111053 222.13520447 39.12196655 221.26795959 39.12284851 C218.4283743 39.12450843 215.58884751 39.11897238 212.74926758 39.11352539 C210.68636674 39.11321918 208.62346579 39.11335234 206.56056499 39.11389065 C201.02469956 39.11411687 195.48885565 39.10831133 189.9529953 39.10128021 C184.76273021 39.095595 179.57247041 39.09531762 174.38220215 39.09460449 C159.19229857 39.08935235 144.00239902 39.07539126 128.8125 39.0625 C94.884375 39.041875 60.95625 39.02125 26 39 C26 114.57 26 190.14 26 268 C51.884375 267.896875 77.76875 267.79375 104.4375 267.6875 C112.6042749 267.66260498 120.7710498 267.63770996 129.18530273 267.61206055 C136.5192443 267.57548727 136.5192443 267.57548727 143.85316467 267.5349884 C147.11445044 267.51708423 150.37564693 267.5074527 153.63697815 267.50288391 C157.80349179 267.4967735 161.96971047 267.47637052 166.13611424 267.44583857 C167.66113572 267.43705627 169.18619586 267.43319651 170.7112416 267.43496072 C181.69173733 267.44381181 192.37378939 266.63087862 201 259 C205.85525807 251.8293732 206.77053519 244.50755296 206 236 C204.52531974 230.81951703 202.30986713 226.3670837 198 223 C195.86690808 221.76487921 195.86690808 221.76487921 194 221 C194 220.01 194 219.02 194 218 C199.46124937 219.06560963 201.96978518 221.71317763 205.484375 225.734375 C210.40511432 233.09011935 209.8254964 242.50300566 209 251 C207.16229223 258.86259778 200.64633576 263.45604482 194.3125 267.875 C189.73742588 270.10071173 185.23378504 270.12412147 180.21061707 270.12025452 C179.54233383 270.12111053 178.8740506 270.12196655 178.18551636 270.12284851 C175.94681096 270.12449921 173.70818094 270.11898739 171.46948242 270.11352539 C169.83686736 270.11321897 168.20425216 270.1133527 166.57163715 270.11389065 C162.2023514 270.11411627 157.83309307 270.1083233 153.46381378 270.10128021 C149.36279718 270.09558237 145.26178723 270.09531693 141.1607666 270.09460449 C129.16967411 270.08935861 117.17858671 270.07539745 105.1875 270.0625 C78.395625 270.041875 51.60375 270.02125 24 270 C24 193.11 24 116.22 24 37 C125.4375 36.75 125.4375 36.75 157.46264648 36.70214844 C166.93879974 36.66892718 166.93879974 36.66892718 176.41493225 36.63043213 C180.63457307 36.613432 184.85407145 36.60756821 189.07374573 36.60845947 C194.45982776 36.60923143 199.84553056 36.59091819 205.2315141 36.55891085 C207.20590384 36.55040425 209.18033636 36.54854624 211.1547364 36.55417585 C213.82796594 36.56083168 216.49997386 36.5428779 219.17308044 36.51898193 C219.94039521 36.52674274 220.70770998 36.53450356 221.49827671 36.54249954 C227.75518902 36.44420999 233.90100813 34.81271639 238.6334886 30.51740813 C242.50338816 26.04317852 243.42392304 22.15013879 243.33984375 16.4140625 C242.75335912 12.24799924 240.91915995 8.99614878 238 6 C232.32645772 2.07692092 228.20007498 1.4208416 221.38856506 1.48101807 C220.43928349 1.47351681 219.49000193 1.46601556 218.51195425 1.458287 C215.34116022 1.43803848 212.17108321 1.44610715 209.00024414 1.45410156 C206.72337132 1.44536504 204.44650463 1.43487899 202.16964722 1.42277527 C195.99459002 1.39490463 189.81973305 1.39151084 183.64462209 1.39249516 C177.18901534 1.38936701 170.73349889 1.36375078 164.27793884 1.34051514 C153.44464633 1.30455353 142.61141936 1.28245074 131.77807617 1.27099609 C120.6217915 1.25916194 109.46557358 1.23895432 98.30932617 1.20751953 C97.2770908 1.20461538 97.2770908 1.20461538 96.22400219 1.20165256 C92.77157577 1.19188775 89.31914985 1.18195868 85.86672413 1.17194796 C57.24451719 1.08916676 28.62230252 1.0354512 0 1 C0 0.67 0 0.34 0 0 Z " fill="#5E5E5E" transform="translate(255,217)"/>
<path d="M0 0 C4.29 0 8.58 0 13 0 C13 0.33 13 0.66 13 1 C9.04 1 5.08 1 1 1 C1 76.57 1 152.14 1 230 C26.884375 229.896875 52.76875 229.79375 79.4375 229.6875 C87.6042749 229.66260498 95.7710498 229.63770996 104.18530273 229.61206055 C111.5192443 229.57548727 111.5192443 229.57548727 118.85316467 229.5349884 C122.11445044 229.51708423 125.37564693 229.5074527 128.63697815 229.50288391 C132.80349179 229.4967735 136.96971047 229.47637052 141.13611424 229.44583857 C142.66113572 229.43705627 144.18619586 229.43319651 145.7112416 229.43496072 C156.69173733 229.44381181 167.37378939 228.63087862 176 221 C180.85525807 213.8293732 181.77053519 206.50755296 181 198 C179.52531974 192.81951703 177.30986713 188.3670837 173 185 C170.86690808 183.76487921 170.86690808 183.76487921 169 183 C169 182.01 169 181.02 169 180 C174.46124937 181.06560963 176.96978518 183.71317763 180.484375 187.734375 C185.40511432 195.09011935 184.8254964 204.50300566 184 213 C182.16229223 220.86259778 175.64633576 225.45604482 169.3125 229.875 C164.73742588 232.10071173 160.23378504 232.12412147 155.21061707 232.12025452 C154.54233383 232.12111053 153.8740506 232.12196655 153.18551636 232.12284851 C150.94681096 232.12449921 148.70818094 232.11898739 146.46948242 232.11352539 C144.83686736 232.11321897 143.20425216 232.1133527 141.57163715 232.11389065 C137.2023514 232.11411627 132.83309307 232.1083233 128.46381378 232.10128021 C124.36279718 232.09558237 120.26178723 232.09531693 116.1607666 232.09460449 C104.16967411 232.08935861 92.17858671 232.07539745 80.1875 232.0625 C53.395625 232.041875 26.60375 232.02125 -1 232 C-0.67 155.44 -0.34 78.88 0 0 Z " fill="#5A5A5A" transform="translate(280,255)"/>
<path d="M0 0 C11.08428956 -0.06988394 22.16852566 -0.12300461 33.25299168 -0.15543652 C38.40140699 -0.1710117 43.54967022 -0.19209893 48.69799805 -0.22631836 C53.67768256 -0.25920515 58.65722192 -0.27691407 63.63700676 -0.28463173 C65.52536233 -0.29012312 67.41371105 -0.30084437 69.30200386 -0.31719017 C90.01936846 -0.48919713 110.42222183 1.76430142 126 17 C138.56665607 30.43262756 143.21821532 43.94109638 143.3125 62.1875 C143.31805908 63.12118408 143.32361816 64.05486816 143.3293457 65.0168457 C143.25687357 71.74312643 143.25687357 71.74312643 141 74 C140.99589111 73.38705078 140.99178223 72.77410156 140.98754883 72.14257812 C140.75180296 51.97027537 138.51585386 35.1909905 124.3125 19.75 C111.74261708 7.99727964 94.32924196 2.91900265 77.42431641 2.79467773 C76.58463318 2.78477814 75.74494995 2.77487854 74.87982178 2.76467896 C72.12043013 2.73323806 69.3610213 2.70837578 66.6015625 2.68359375 C64.68199226 2.66300917 62.7624264 2.64201231 60.84286499 2.62062073 C55.80250608 2.56555539 50.76210732 2.51607787 45.72167969 2.46777344 C40.57353184 2.41744465 35.42544151 2.36181809 30.27734375 2.30664062 C20.18494503 2.19924922 10.09249626 2.09776237 0 2 C0 1.34 0 0.68 0 0 Z " fill="#5A5A59" transform="translate(348,307)"/>
<path d="M0 0 C4.29 0 8.58 0 13 0 C13 0.33 13 0.66 13 1 C9.04 1 5.08 1 1 1 C1 76.57 1 152.14 1 230 C18.82 230 36.64 230 55 230 C54.67 230.66 54.34 231.32 54 232 C35.85 232 17.7 232 -1 232 C-0.67 155.44 -0.34 78.88 0 0 Z " fill="#4E4E4E" transform="translate(280,255)"/>
<path d="M0 0 C11.22249189 -0.02319512 22.44497805 -0.04095164 33.66748905 -0.05181217 C38.87883922 -0.05702531 44.09017296 -0.06409445 49.30151367 -0.07543945 C54.33301899 -0.0863241 59.36450852 -0.09228866 64.3960247 -0.09487724 C66.31330043 -0.09672144 68.23057532 -0.10032267 70.14784431 -0.10573006 C72.83824641 -0.11301451 75.52858373 -0.11398782 78.21899414 -0.11352539 C79.00734146 -0.11712067 79.79568878 -0.12071594 80.60792542 -0.12442017 C85.17502369 -0.115955 89.49367902 0.24735826 94 1 C92 3 92 3 88.26681519 3.20254517 C86.62031335 3.19053882 84.97387288 3.16717466 83.32763672 3.13525391 C82.43001617 3.12579239 81.53239563 3.11633087 80.60757446 3.10658264 C77.63140863 3.07282102 74.65565224 3.02472883 71.6796875 2.9765625 C69.6198942 2.95040403 67.56008942 2.92513634 65.50027466 2.90072632 C60.0716908 2.83399057 54.64334775 2.75511615 49.21496582 2.67376709 C43.67856102 2.59292963 38.1420147 2.52349814 32.60546875 2.453125 C21.73680949 2.31328659 10.86837043 2.16063228 0 2 C0 1.34 0 0.68 0 0 Z " fill="#585856" transform="translate(348,307)"/>
<path d="M0 0 C5.46124937 1.06560963 7.96978518 3.71317763 11.484375 7.734375 C16.40511432 15.09011935 15.8254964 24.50300566 15 33 C13.16229223 40.86259778 6.64633576 45.45604482 0.3125 49.875 C-4.28230698 52.1103115 -8.76734419 52.11346117 -13.8125 52.0625 C-14.97394531 52.05347656 -16.13539063 52.04445313 -17.33203125 52.03515625 C-18.21246094 52.02355469 -19.09289062 52.01195312 -20 52 C-20 51.67 -20 51.34 -20 51 C-16.04 51 -12.08 51 -8 51 C-8 50.34 -8 49.68 -8 49 C-7.41992188 48.75765625 -6.83984375 48.5153125 -6.2421875 48.265625 C2.2165365 44.63646949 7.49625897 41.75036863 11 33 C13.15194338 26.54416986 12.90476536 19.26732841 10.25 13 C7.78567458 8.2015072 5.01024841 5.14724932 0 3 C0 2.01 0 1.02 0 0 Z " fill="#5A5A59" transform="translate(449,435)"/>
<path d="M0 0 C0.33 0 0.66 0 1 0 C1 9.9 1 19.8 1 30 C18.82 30 36.64 30 55 30 C54.67 30.66 54.34 31.32 54 32 C35.85 32 17.7 32 -1 32 C-0.67 21.44 -0.34 10.88 0 0 Z " fill="#545454" transform="translate(280,455)"/>
<path d="M0 0 C0.33 0 0.66 0 1 0 C3.2431709 28.57882924 3.2431709 28.57882924 -3 39 C-3.51691406 39.86625 -4.03382813 40.7325 -4.56640625 41.625 C-5.97091811 43.82152982 -7.43426409 45.91663009 -9 48 C-9.83144531 49.11181641 -9.83144531 49.11181641 -10.6796875 50.24609375 C-11.11539062 50.82488281 -11.55109375 51.40367187 -12 52 C-11.34 52 -10.68 52 -10 52 C-10.33 53.32 -10.66 54.64 -11 56 C-12.65 54.35 -14.3 52.7 -16 51 C-15.48050781 50.40574219 -14.96101563 49.81148438 -14.42578125 49.19921875 C-4.4879732 37.38773895 -0.85416658 25.71353888 -0.375 10.5 C-0.31699219 8.98019531 -0.31699219 8.98019531 -0.2578125 7.4296875 C-0.16436381 4.95329716 -0.07860127 2.47689849 0 0 Z " fill="#696968" transform="translate(488,358)"/>
<path d="M0 0 C0 0.66 0 1.32 0 2 C-1.39932207 2.97395163 -2.846245 3.8800688 -4.3125 4.75 C-8.35166898 7.37927037 -10.57031967 9.23439888 -12 14 C-12.56117044 19.89228966 -11.89833287 23.70304682 -9 29 C-6.46975202 31.84652897 -4.16697747 33.88868169 -1 36 C-1.66 36.66 -2.32 37.32 -3 38 C-8.42333183 34.7207761 -12.91999228 31.24002317 -15 25 C-15.94916973 12.35048802 -15.94916973 12.35048802 -12 7 C-4.85106383 0 -4.85106383 0 0 0 Z " fill="#5A5A59" transform="translate(348,308)"/>
<path d="M0 0 C-0.33 0.99 -0.66 1.98 -1 3 C-4.01953125 4.1328125 -4.01953125 4.1328125 -7.8125 5.125 C-9.05644531 5.45757813 -10.30039062 5.79015625 -11.58203125 6.1328125 C-12.70996094 6.41898438 -13.83789062 6.70515625 -15 7 C-15.63671631 7.18087158 -16.27343262 7.36174316 -16.92944336 7.5480957 C-19.19769183 8.04314675 -21.22655953 8.11333406 -23.546875 8.09765625 C-24.39121094 8.09443359 -25.23554688 8.09121094 -26.10546875 8.08789062 C-26.97816406 8.07951172 -27.85085938 8.07113281 -28.75 8.0625 C-30.08224609 8.05573242 -30.08224609 8.05573242 -31.44140625 8.04882812 C-33.62767329 8.037074 -35.81380179 8.02064249 -38 8 C-38 7.67 -38 7.34 -38 7 C-36.93471069 6.84180786 -36.93471069 6.84180786 -35.84790039 6.68041992 C-32.5847994 6.19104771 -29.32370218 5.68936379 -26.0625 5.1875 C-24.94552734 5.02185547 -23.82855469 4.85621094 -22.67773438 4.68554688 C-16.85333544 3.78028839 -11.40936038 2.70326044 -5.90014648 0.5793457 C-4 0 -4 0 0 0 Z " fill="#5F5F5E" transform="translate(463,516)"/>
<path d="M0 0 C1.47265625 0.98046875 1.47265625 0.98046875 3 3 C3.32685651 5.86514759 3.4642437 8.45092377 3.4375 11.3125 C3.4674707 12.43301758 3.4674707 12.43301758 3.49804688 13.57617188 C3.49265188 19.72107122 1.53077708 23.02141786 -2.45703125 27.71484375 C-5.50391549 30.46318602 -6.7248718 31.01331265 -10.875 30.8125 C-11.90625 30.544375 -12.9375 30.27625 -14 30 C-11 28 -11 28 -8.125 26.75 C-3.56130524 24.19433093 -0.68689547 21.0606864 1 16 C1.4413121 10.61188711 1.07424894 6.05598179 -1 1 C-0.67 0.67 -0.34 0.34 0 0 Z " fill="#636362" transform="translate(497,224)"/>
<path d="M0 0 C9.74253187 0.04489646 18.93292033 3.62194689 27 9 C26.67 10.32 26.34 11.64 26 13 C25.46375 12.62488281 24.9275 12.24976563 24.375 11.86328125 C16.71103063 6.85901177 8.72724832 4.44709444 0 2 C0 1.34 0 0.68 0 0 Z " fill="#636363" transform="translate(440,309)"/>
<path d="M0 0 C6.19049884 1.20790221 9.55225416 4.96610111 13 10 C13.69921875 12.2578125 13.69921875 12.2578125 14 14 C13.01 14 12.02 14 11 14 C10.484375 12.9275 9.96875 11.855 9.4375 10.75 C7.06644627 6.53003795 4.30256358 5.06854018 0 3 C0 2.01 0 1.02 0 0 Z " fill="#686868" transform="translate(449,435)"/>
<path d="M0 0 C1.18331753 1.7749763 2.32688612 3.57947994 3.375 5.4375 C5.7439509 9.17315334 8.33046623 11.55364415 12 14 C11.34 14.66 10.68 15.32 10 16 C5.35475744 13.19124869 2.01493346 10.56808101 -1 6 C-0.8125 2.625 -0.8125 2.625 0 0 Z " fill="#6A6A69" transform="translate(335,330)"/>
<path d="M0 0 C0.99 0 1.98 0 3 0 C4.65497356 3.30994713 4.10084335 6.99123 4.0625 10.625 C4.05798828 11.42679687 4.05347656 12.22859375 4.04882812 13.0546875 C4.03703168 15.03649006 4.01909605 17.01825433 4 19 C2.68 19.33 1.36 19.66 0 20 C0.16242188 19.46375 0.32484375 18.9275 0.4921875 18.375 C1.0997828 15.53332354 1.13226278 12.90511293 1.125 10 C1.12757813 8.96875 1.13015625 7.9375 1.1328125 6.875 C1.01863671 4.40342991 0.71350656 2.3557042 0 0 Z " fill="#595959" transform="translate(460,449)"/>
<path d="M0 0 C0.66 0.99 1.32 1.98 2 3 C-7.08108108 11 -7.08108108 11 -13 11 C-13 10.01 -13 9.02 -13 8 C-12.39671875 7.75765625 -11.7934375 7.5153125 -11.171875 7.265625 C-6.70093996 5.39071676 -3.15166283 3.83680693 0 0 Z " fill="#656563" transform="translate(447,385)"/>
<path d="M0 0 C0.33 0 0.66 0 1 0 C1.19619224 4.29131609 1.38048583 8.58306102 1.5625 12.875 C1.61857422 14.09832031 1.67464844 15.32164062 1.73242188 16.58203125 C1.78076172 17.74863281 1.82910156 18.91523438 1.87890625 20.1171875 C1.94960327 21.73536377 1.94960327 21.73536377 2.02172852 23.38623047 C2 26 2 26 1 28 C0.34 28 -0.32 28 -1 28 C-1.33 28.66 -1.66 29.32 -2 30 C-1.84660156 28.9171875 -1.69320313 27.834375 -1.53515625 26.71875 C-0.86114072 21.32662577 -0.65470297 15.92651344 -0.4375 10.5 C-0.39431641 9.48679687 -0.35113281 8.47359375 -0.30664062 7.4296875 C-0.20150808 4.9532321 -0.09936163 2.47669251 0 0 Z " fill="#8E8E8D" transform="translate(488,358)"/>
<path d="M0 0 C6.11774896 -0.49940808 9.02495953 0.75099398 14 4 C13.67 5.32 13.34 6.64 13 8 C11.39528272 7.04258894 9.79124671 6.08403595 8.1875 5.125 C7.29417969 4.59132813 6.40085937 4.05765625 5.48046875 3.5078125 C3.62705276 2.38116908 1.80470083 1.20313389 0 0 Z " fill="#656565" transform="translate(453,314)"/>
<path d="M0 0 C-0.7425 0.556875 -1.485 1.11375 -2.25 1.6875 C-4.91707995 3.93027178 -6.91556232 6.22074975 -9 9 C-9.99 8.67 -10.98 8.34 -12 8 C-6 -2 -6 -2 0 0 Z " fill="#5D5D5C" transform="translate(346,397)"/>
<path d="M0 0 C0.66 0.33 1.32 0.66 2 1 C1 4 1 4 -1.06640625 5.16796875 C-1.89011719 5.50441406 -2.71382813 5.84085938 -3.5625 6.1875 C-4.38878906 6.53167969 -5.21507812 6.87585938 -6.06640625 7.23046875 C-7.02353516 7.61138672 -7.02353516 7.61138672 -8 8 C-8 7.34 -8 6.68 -8 6 C-8.66 5.67 -9.32 5.34 -10 5 C-8.38007835 4.13624104 -6.75388139 3.28424146 -5.125 2.4375 C-4.22007812 1.96183594 -3.31515625 1.48617188 -2.3828125 0.99609375 C-1.20332031 0.50302734 -1.20332031 0.50302734 0 0 Z " fill="#6E6E6D" transform="translate(471,510)"/>
<path d="M0 0 C0.66 0.33 1.32 0.66 2 1 C0.51992284 3.96015432 -0.47635149 5.69683507 -3.375 7.375 C-6.30306972 8.07215946 -8.12997964 7.82000582 -11 7 C-8 5 -8 5 -4.9375 3.5 C-1.96887524 2.17432658 -1.96887524 2.17432658 0 0 Z " fill="#6C6C6B" transform="translate(494,247)"/>
<path d="M0 0 C-0.33 0.66 -0.66 1.32 -1 2 C-4.92773752 3.14170067 -8.74578979 3.10357788 -12.8125 3.0625 C-13.97394531 3.05347656 -15.13539063 3.04445313 -16.33203125 3.03515625 C-17.21246094 3.02355469 -18.09289062 3.01195312 -19 3 C-19 2.67 -19 2.34 -19 2 C-15.04 2 -11.08 2 -7 2 C-7 1.34 -7 0.68 -7 0 C-4.3333581 -1.33332095 -2.83319697 -0.67102033 0 0 Z " fill="#656565" transform="translate(448,484)"/>
<path d="M0 0 C4.22222222 6.33333333 4.22222222 6.33333333 3.625 10.8125 C3.41875 11.534375 3.2125 12.25625 3 13 C0.72299943 10.72299943 0.47898308 9.58686902 -0.1875 6.5 C-0.36667969 5.7059375 -0.54585938 4.911875 -0.73046875 4.09375 C-1 2 -1 2 0 0 Z " fill="#676766" transform="translate(495,432)"/>
<path d="M0 0 C0.66 0.33 1.32 0.66 2 1 C1.67 4.96 1.34 8.92 1 13 C0.67 13 0.34 13 0 13 C-0.19466332 11.20909747 -0.38051213 9.41723495 -0.5625 7.625 C-0.66691406 6.62726563 -0.77132813 5.62953125 -0.87890625 4.6015625 C-1 2 -1 2 0 0 Z " fill="#6C6C6B" transform="translate(334,405)"/>
<path d="M0 0 C2.97 0.99 5.94 1.98 9 3 C9 3.33 9 3.66 9 4 C3.375 4.25 3.375 4.25 0 2 C0 1.34 0 0.68 0 0 Z " fill="#60605F" transform="translate(250,520)"/>
<path d="M0 0 C0.99 0.33 1.98 0.66 3 1 C2.01 2.98 1.02 4.96 0 7 C-0.99 6.34 -1.98 5.68 -3 5 C-2.01 3.35 -1.02 1.7 0 0 Z " fill="#656565" transform="translate(460,469)"/>
<path d="M0 0 C-0.33 0.99 -0.66 1.98 -1 3 C-2.9375 3.75 -2.9375 3.75 -5 4 C-5.66 3.67 -6.32 3.34 -7 3 C-7 2.34 -7 1.68 -7 1 C-4 0 -4 0 0 0 Z " fill="#585858" transform="translate(463,516)"/>
<path d="M0 0 C2.76223278 2.76223278 2.57856291 5.20706617 3 9 C2.01 8.67 1.02 8.34 0 8 C0 5.36 0 2.72 0 0 Z " fill="#575757" transform="translate(242,506)"/>
<path d="M0 0 C0.598125 0.350625 1.19625 0.70125 1.8125 1.0625 C-0.83488916 2.5231285 -2.08198334 3.0625 -5.1875 3.0625 C-5.1875 2.0725 -5.1875 1.0825 -5.1875 0.0625 C-2.1875 -0.9375 -2.1875 -0.9375 0 0 Z " fill="#6E6E6E" transform="translate(439.1875,392.9375)"/>
<path d="M0 0 C0.99 0 1.98 0 3 0 C2.1875 2.9375 2.1875 2.9375 1 6 C0.01 6.33 -0.98 6.66 -2 7 C-1.34 4.69 -0.68 2.38 0 0 Z " fill="#656565" transform="translate(335,316)"/>
<path d="M0 0 C1.32 0.66 2.64 1.32 4 2 C3.67 3.32 3.34 4.64 3 6 C1.02 4.68 -0.96 3.36 -3 2 C-2.01 1.34 -1.02 0.68 0 0 Z " fill="#707070" transform="translate(463,316)"/>
</svg>
